<svg xmlns="http://www.w3.org/2000/svg" viewBox="0 0 64 64" width="64" height="64" ><svg viewBox="0 0 64 64" width="64" height="64" fill="currentcolor"><path d="M 25.634804243850944 0 L 38.365195756149056 0 L 41.21051422582342 12.020850175848214 A 22 22 0 0 1 48.15509520758508 17.066383598275284 L 60.46685486027157 16.057795278621864 L 64.40076218261827 28.1651170813815 L 53.847506053008374 34.58582274407243 A 22 22 0 0 1 51.19491215560154 42.74966731293301 L 55.95867961260702 54.14717562657927 L 45.65957653411126 61.62991201341737 L 36.29198708435482 53.577276168871066 A 22 22 0 0 1 27.708012915645185 53.57727616887107 L 18.340423465888744 61.62991201341737 L 8.041320387392982 54.14717562657927 L 12.80508784439846 42.749667312933006 A 22 22 0 0 1 10.152493946991623 34.58582274407244 L 0 28.165117081381492 L 3.533145139728441 16.057795278621857 L 15.84490479241492 17.06638359827528 A 22 22 0 0 1 22.789485774176583 12.02085017584821 M 32 20 A 12 12 0 0 0 32 44 A 12 12 0 0 0 32 20"></path></svg></svg>