<svg xmlns="http://www.w3.org/2000/svg" viewBox="0 0 64 64" width="64" height="64" ><svg viewBox="0 0 64 64" width="64" height="64" fill="currentcolor"><path d="M 23.984417273878226 0 L 40.01558272612178 0 L 43.31026037225088 13.129970579994016 A 22 22 0 0 1 50.87002942000599 20.68973962774912 L 64 23.984417273878226 L 64 40.01558272612178 L 50.870029420005984 43.31026037225088 A 22 22 0 0 1 43.31026037225088 50.870029420005984 L 40.01558272612178 64 L 23.984417273878226 64 L 20.689739627749127 50.87002942000599 A 22 22 0 0 1 13.129970579994012 43.31026037225088 L 0 40.01558272612178 L 0 23.984417273878233 L 13.129970579994012 20.689739627749127 A 22 22 0 0 1 20.68973962774912 13.129970579994016 M 32 20 A 12 12 0 0 0 32 44 A 12 12 0 0 0 32 20"></path></svg></svg>