<svg xmlns="http://www.w3.org/2000/svg" viewBox="0 0 64 64" width="64" height="64" ><svg viewBox="0 0 64 64" width="64" height="64" fill="currentcolor"><path d="M 28.495430026136273 0 L 35.504569973863724 0 L 37.22908963117581 10.63047446410825 A 22 22 0 0 1 41.730351184818026 12.268799686280857 L 49.88454715596933 5.2338836637136215 L 55.25385986396918 9.739271976671786 L 49.741781293884614 18.991187736001187 A 22 22 0 0 1 52.136852540627835 23.13957282310778 L 62.905285906922984 22.99193063342344 L 64.12241028585834 29.89458599589302 L 53.952896311249276 33.43886884306315 A 22 22 0 0 1 53.121096796490434 38.15623830868183 L 61.465097908033904 44.964953373293845 L 57.96052793417018 51.035046626706155 L 47.892007165314624 47.213287227209925 A 22 22 0 0 1 44.22254512643125 50.292331470655995 L 46.237863129889014 60.87153034039336 L 39.651426042953794 63.268797389904776 L 34.39507124674322 53.869239440891036 A 22 22 0 0 1 29.60492875325678 53.869239440891036 L 24.34857395704621 63.268797389904776 L 17.762136870110997 60.87153034039336 L 19.77745487356875 50.292331470655995 A 22 22 0 0 1 16.10799283468538 47.21328722720993 L 6.039472065829824 51.035046626706155 L 2.5349020919660985 44.964953373293845 L 10.87890320350957 38.15623830868183 A 22 22 0 0 1 10.047103688750724 33.43886884306315 L 0 29.894585995893014 L 1.0947140930770216 22.991930633423433 L 11.863147459372161 23.139572823107784 A 22 22 0 0 1 14.258218706115382 18.991187736001187 L 8.746140136030807 9.739271976671791 L 14.115452844030667 5.233883663713624 L 22.26964881518197 12.268799686280857 A 22 22 0 0 1 26.770910368824183 10.63047446410825 M 32 20 A 12 12 0 0 0 32 44 A 12 12 0 0 0 32 20"></path></svg></svg>