<svg xmlns="http://www.w3.org/2000/svg" viewBox="0 0 64 64" width="64" height="64" ><svg viewBox="0 0 64 64" width="64" height="64" fill="currentcolor"><path d="M 25.634804243850944 0 L 38.365195756149056 0 L 36.29198708435482 10.42272383112893 A 22 22 0 0 1 44.22254512643125 13.707668529344005 L 50.126543915216686 4.87170991927765 L 59.12829008072235 13.873456084783314 L 50.292331470655995 19.77745487356875 A 22 22 0 0 1 53.577276168871066 27.708012915645178 L 64 25.634804243850944 L 64 38.365195756149056 L 53.577276168871066 36.29198708435482 A 22 22 0 0 1 50.292331470655995 44.22254512643125 L 59.12829008072235 50.126543915216686 L 50.126543915216686 59.12829008072235 L 44.22254512643125 50.292331470655995 A 22 22 0 0 1 36.29198708435482 53.577276168871066 L 38.365195756149056 64 L 25.634804243850944 64 L 27.708012915645185 53.57727616887107 A 22 22 0 0 1 19.77745487356875 50.292331470655995 L 13.873456084783314 59.12829008072235 L 4.87170991927765 50.126543915216686 L 13.707668529344001 44.22254512643125 A 22 22 0 0 1 10.42272383112893 36.29198708435482 L 0 38.36519575614906 L 0 25.63480424385095 L 10.422723831128927 27.708012915645185 A 22 22 0 0 1 13.707668529344005 19.77745487356875 L 4.8717099192776425 13.873456084783314 L 13.873456084783307 4.871709919277649 L 19.777454873568736 13.707668529344016 A 22 22 0 0 1 27.70801291564517 10.422723831128934 M 32 20 A 12 12 0 0 0 32 44 A 12 12 0 0 0 32 20"></path></svg></svg>