<svg xmlns="http://www.w3.org/2000/svg" viewBox="0 0 64 64" width="64" height="64" ><svg viewBox="0 0 64 64" width="64" height="64" fill="currentcolor"><path d="M 27.482350904622585 0 L 36.517649095377415 0 L 38.680888392411525 11.038947300096282 A 22 22 0 0 1 44.22254512643125 13.707668529344005 L 54.20189929963281 8.51628605101125 L 59.83531557832111 15.580366630029808 L 52.5534766864812 24.154326281429114 A 22 22 0 0 1 53.922152870587624 30.150888451556554 L 64.20296468580864 34.71628768607566 L 62.192421693828074 43.52505208712847 L 50.948877821112994 43.17765759542365 A 22 22 0 0 1 47.113932372767835 47.986527084748595 L 49.95454084280444 58.870869291354005 L 41.81401846071929 62.79113825440081 L 35.07538746978099 53.7839847574018 A 22 22 0 0 1 28.92461253021902 53.783984757401804 L 22.185981539280704 62.79113825440082 L 14.045459157195552 58.870869291354 L 16.886067627232162 47.986527084748595 A 22 22 0 0 1 13.051122178886999 43.177657595423646 L 1.807578306171926 43.52505208712847 L 0 34.71628768607566 L 10.07784712941238 30.150888451556543 A 22 22 0 0 1 11.446523313518803 24.15432628142911 L 4.164684421678892 15.580366630029811 L 9.798100700367193 8.516286051011253 L 19.777454873568736 13.707668529344016 A 22 22 0 0 1 25.319111607588468 11.038947300096282 M 32 20 A 12 12 0 0 0 32 44 A 12 12 0 0 0 32 20"></path></svg></svg>