<svg xmlns="http://www.w3.org/2000/svg" viewBox="0 0 64 64" width="64" height="64" ><svg viewBox="0 0 64 64" width="64" height="64" fill="currentcolor"><path d="M 26.716778617849712 0 L 37.28322138215029 0 L 39.749501054267135 11.410069611338834 A 22 22 0 0 1 45.956652251600204 14.993770026019789 L 57.0712022300269 11.424596069240717 L 62.354423612177186 20.575403930759283 L 53.70615330586734 28.41629958531905 A 22 22 0 0 1 53.70615330586734 35.583700414680955 L 62.354423612177186 43.424596069240714 L 57.0712022300269 52.575403930759286 L 45.956652251600204 49.00622997398021 A 22 22 0 0 1 39.749501054267135 52.589930388661166 L 37.28322138215029 64 L 26.716778617849712 64 L 24.250498945732865 52.589930388661166 A 22 22 0 0 1 18.043347748399803 49.00622997398021 L 6.928797769973105 52.575403930759286 L 1.645576387822818 43.424596069240714 L 10.293846694132661 35.583700414680955 A 22 22 0 0 1 10.293846694132661 28.41629958531905 L 1.6455763878228207 20.57540393075928 L 6.928797769973109 11.424596069240714 L 18.043347748399807 14.993770026019781 A 22 22 0 0 1 24.250498945732854 11.410069611338837 M 32 20 A 12 12 0 0 0 32 44 A 12 12 0 0 0 32 20"></path></svg></svg>