<svg xmlns="http://www.w3.org/2000/svg" viewBox="0 0 64 64" width="64" height="64" ><svg viewBox="0 0 64 64" width="64" height="64" fill="currentcolor"><path d="M 27.253248398772882 0 L 36.74675160122712 0 L 37.34556395787181 10.659312429720032 A 22 22 0 0 1 43.31026037225088 13.129970579994016 L 51.27095675213372 6.016122756194683 L 57.98387724380532 12.72904324786628 L 50.87002942000599 20.68973962774912 A 22 22 0 0 1 53.34068757027997 26.654436042128197 L 64 27.253248398772882 L 64 36.74675160122712 L 53.34068757027997 37.3455639578718 A 22 22 0 0 1 50.870029420005984 43.31026037225088 L 57.98387724380532 51.27095675213372 L 51.27095675213372 57.98387724380532 L 43.31026037225088 50.870029420005984 A 22 22 0 0 1 37.34556395787181 53.34068757027997 L 36.74675160122712 64 L 27.253248398772882 64 L 26.654436042128197 53.34068757027997 A 22 22 0 0 1 20.689739627749127 50.87002942000599 L 12.72904324786628 57.98387724380532 L 6.016122756194683 51.27095675213372 L 13.129970579994012 43.31026037225088 A 22 22 0 0 1 10.659312429720032 37.34556395787181 L 0 36.746751601227125 L 0 27.25324839877289 L 10.659312429720032 26.654436042128197 A 22 22 0 0 1 13.129970579994012 20.689739627749127 L 6.016122756194677 12.72904324786628 L 12.729043247866272 6.016122756194683 L 20.68973962774912 13.129970579994016 A 22 22 0 0 1 26.65443604212819 10.659312429720032 M 32 20 A 12 12 0 0 0 32 44 A 12 12 0 0 0 32 20"></path></svg></svg>