<svg xmlns="http://www.w3.org/2000/svg" viewBox="0 0 64 64" width="64" height="64" ><svg viewBox="0 0 64 64" width="64" height="64" fill="currentcolor"><path d="M 28.848275092570745 0 L 35.151724907429255 0 L 38.38626289959817 10.947312613891402 A 22 22 0 0 1 42.37072821017195 12.597732184336188 L 52.398810943491746 7.14397694755271 L 56.85602305244729 11.601189056508252 L 51.40226781566381 21.629271789828053 A 22 22 0 0 1 53.052687386108595 25.613737100401828 L 64 28.848275092570745 L 64 35.151724907429255 L 53.052687386108595 38.38626289959817 A 22 22 0 0 1 51.40226781566381 42.37072821017195 L 56.85602305244729 52.398810943491746 L 52.398810943491746 56.85602305244729 L 42.37072821017195 51.40226781566381 A 22 22 0 0 1 38.38626289959817 53.0526873861086 L 35.151724907429255 64 L 28.848275092570745 64 L 25.613737100401828 53.052687386108595 A 22 22 0 0 1 21.62927178982806 51.40226781566382 L 11.601189056508252 56.85602305244729 L 7.14397694755271 52.398810943491746 L 12.597732184336191 42.370728210171954 A 22 22 0 0 1 10.947312613891405 38.38626289959817 L 0 35.15172490742926 L 0 28.848275092570752 L 10.947312613891402 25.613737100401835 A 22 22 0 0 1 12.597732184336188 21.629271789828053 L 7.143976947552703 11.601189056508252 L 11.601189056508245 7.14397694755271 L 21.629271789828046 12.597732184336191 A 22 22 0 0 1 25.613737100401828 10.947312613891405 M 32 20 A 12 12 0 0 0 32 44 A 12 12 0 0 0 32 20"></path></svg></svg>