<svg xmlns="http://www.w3.org/2000/svg" viewBox="0 0 64 64" width="64" height="64" ><svg viewBox="0 0 64 64" width="64" height="64" fill="currentcolor"><path d="M 28.848275092570745 0 L 35.151724907429255 0 L 36.714801367431114 10.511150610940806 A 22 22 0 0 1 40.81647432826911 11.84386494342301 L 48.259329061654064 4.2589187601319045 L 53.35892708506422 7.963993599871459 L 48.44518319097713 17.3864463659518 A 22 22 0 0 1 50.98015649151142 20.87553778568434 L 61.45987196345447 19.11398766922135 L 63.407745079435365 25.108924690782015 L 53.89406398678833 29.843622912749666 A 22 22 0 0 1 53.89406398678833 34.156377087250334 L 63.407745079435365 38.89107530921798 L 61.45987196345447 44.886012330778655 L 50.98015649151142 43.124462214315656 A 22 22 0 0 1 48.44518319097713 46.6135536340482 L 53.35892708506422 56.03600640012854 L 48.259329061654064 59.741081239868095 L 40.81647432826911 52.156135056576986 A 22 22 0 0 1 36.714801367431114 53.4888493890592 L 35.151724907429255 64 L 28.848275092570745 64 L 27.285198632568882 53.4888493890592 A 22 22 0 0 1 23.183525671730898 52.156135056576986 L 15.74067093834594 59.741081239868095 L 10.641072914935787 56.03600640012854 L 15.554816809022874 46.6135536340482 A 22 22 0 0 1 13.01984350848858 43.124462214315656 L 2.540128036545535 44.886012330778655 L 0.5922549205646387 38.89107530921798 L 10.105936013211672 34.15637708725034 A 22 22 0 0 1 10.105936013211668 29.843622912749666 L 0.592254920564638 25.108924690782008 L 2.540128036545536 19.11398766922134 L 13.01984350848858 20.875537785684337 A 22 22 0 0 1 15.55481680902287 17.386446365951805 L 10.64107291493578 7.963993599871462 L 15.740670938345932 4.258918760131908 L 23.1835256717309 11.843864943423007 A 22 22 0 0 1 27.28519863256887 10.51115061094081 M 32 20 A 12 12 0 0 0 32 44 A 12 12 0 0 0 32 20"></path></svg></svg>